<svg xmlns="http://www.w3.org/2000/svg" xmlns:xlink="http://www.w3.org/1999/xlink" version="1.1" id="Layer_1" x="0px" y="0px" viewBox="225 0 50 50" xml:space="preserve">
							<g>
								<path class="svg-line" fill="none" stroke="#000000" stroke-width="1" stroke-miterlimit="10" d="M249.125,11.063   c-0.055,0-1.33-0.92-2.5-1.219c-1.249-0.319-2.711-0.112-2.774-0.105c-3.067,0.299-8.783,4.186-8.783,4.186   s-1.754,1.167-4.252,0.117L226,12.301v17.367l2.59,0.062" style="opacity: 2.94196; stroke-dasharray: 132px, 44.8681px;"></path>
							</g>
							<path class="svg-line" fill="none" stroke="#000000" stroke-width="1" stroke-miterlimit="10" d="M247.931,42.25  c0.827,0.857,2.175,0.855,3.003,0c0.825-0.858,0.827-2.257,0-3.115c-0.027-0.028-0.062-0.049-0.087-0.074  c0-0.007,0.003-0.014,0.003-0.019c-2.789-2.895-2.933-3.105-2.658-3.39c0.275-0.287,0.685,0.344,3.807,3.585  c0.014,0.014,0.031,0.025,0.056,0.038c0.063,0.088,0.126,0.181,0.203,0.261c0.827,0.859,2.176,0.855,3.004,0  c0.825-0.855,0.826-2.255,0-3.117c-0.046-0.043-0.094-0.078-0.14-0.119c-0.041-0.049-0.081-0.098-0.131-0.15  c-2.849-2.952-3.173-3.513-2.954-3.738c0.249-0.258,1.573,1.251,4.408,4.191c0.007,0,0.012,0,0.019,0  c0.831,0.783,2.122,0.763,2.926-0.069c0.77-0.802,0.813-2.072,0.14-2.937c-0.015-0.06-0.038-0.108-0.072-0.148  c-3.587-3.723-3.436-3.778-3.215-4.004c0.215-0.226,0.231-0.24,3.723,3.381c0.012,0.015,0.022,0.034,0.037,0.047  c0.825,0.858,2.176,0.856,3.003,0c0.823-0.857,0.827-2.257,0-3.115l-2.086-2.204" style="opacity: 2.94196; stroke-dasharray: 183.408px, 62.342px;"></path>
							<path class="svg-line" fill="none" stroke="#000000" stroke-width="1" stroke-miterlimit="10" d="M273.834,13.877v15.182  c0,0-3.13,0.638-3.776,0.722c-0.643,0.085-2.661,0.76-4.129-0.697c-2.258-2.248-10.286-10.528-10.286-10.528  s-1.384-1.408-3.607-0.189c-2.029,1.113-5.039,2.74-6.313,3.382c-0.452,0.327-0.998,0.522-1.591,0.522  c-1.534,0-2.78-1.292-2.78-2.886c0-1.248,0.765-2.309,1.836-2.71c2.895-1.816,8.928-5.329,11.444-6.717  c1.541-0.847,2.645-0.919,4.754,0.921c2.599,2.27,4.909,4.333,4.909,4.333s1.082,0.517,1.953,0.392  C268.075,15.333,273.834,13.877,273.834,13.877z" style="opacity: 2.94196; stroke-dasharray: 275.676px, 93.7049px;"></path>
							<path class="svg-line" fill="none" stroke="#000000" stroke-width="1" stroke-miterlimit="10" d="M242.63,38.109  c0.389-1.036,0.256-2.197-0.488-2.99c-0.67-0.715-1.646-0.902-2.578-0.681c0.26-0.956,0.116-1.975-0.557-2.695  c-0.673-0.714-1.646-0.902-2.579-0.679c0.259-0.957,0.114-1.976-0.556-2.697c-1.058-1.124-2.883-1.074-4.081,0.111  c-1.192,1.188-1.957,3.336-0.892,4.598c1.064,1.262,2.282,0.495,3.214,0.275c-0.258,0.957-1.033,1.848-0.081,3.102  c0.952,1.256,2.281,0.496,3.214,0.272c-0.259,0.956-1.002,1.937-0.082,3.101c0.926,1.163,2.444,0.543,3.445,0.224  c-0.387,1.033-1.214,2.141-0.151,3.394c1.063,1.252,3.517,0.67,4.717-0.517c1.198-1.186,1.312-3.063,0.261-4.189  C244.712,37.964,243.629,37.785,242.63,38.109z" style="opacity: 2.94196; stroke-dasharray: 170.764px, 58.0442px;"></path>
						</svg>