<svg xmlns="http://www.w3.org/2000/svg" xmlns:xlink="http://www.w3.org/1999/xlink" version="1.1" id="Layer_1" x="0px" y="0px" viewBox="0 0 50 50" xml:space="preserve">
							<g>
								<g>
									<g>
										<g>
											<path class="svg-line" fill="none" stroke="#000000" stroke-miterlimit="10" d="M17.063,12.057 17.063,0.813 49.186,0.813 49.186,20.088       41.516,20.088 33.157,29.414 33.157,20.088 29.913,20.088" style="opacity: 2.94196; stroke-dasharray: 280.68px, 95.4059px;"></path>
										</g>
										<g>
											<g>
												<path class="svg-line" fill="none" stroke="#000000" stroke-miterlimit="10" d="M29.913,10.45 28.305,10.45 28.305,12.057 29.913,12.057" style="opacity: 2.94196; stroke-dasharray: 14.1891px, 4.823px;"></path>
											</g>
										</g>
										<g>
											<g>
												<path class="svg-line" fill="none" stroke="#000000" stroke-miterlimit="10" d="M34.729,10.45 33.124,10.45 33.124,12.057 34.729,12.057" style="opacity: 2.94196; stroke-dasharray: 14.1714px, 4.817px;"></path>
											</g>
										</g>
										<g>
											<g>
												<path class="svg-line" fill="none" stroke="#000000" stroke-miterlimit="10" d="M39.549,10.45 37.942,10.45 37.942,12.057 39.549,12.057" style="opacity: 2.94196; stroke-dasharray: 14.1832px, 4.821px;"></path>
											</g>
										</g>
										<g>
											<path class="svg-line" fill="none" stroke="#000000" stroke-miterlimit="10" d="M32.321,49H1.804C1.36,49,1,48.639,1,48.197v-4.818      c0-0.45,0-1.207,4.132-3.529c2.117-1.193,4.74-2.458,7.111-3.438v-2.999c-0.742-0.498-1.959-1.773-2.114-4.813      c-0.922-0.366-1.535-1.385-1.535-2.678c0-0.689,0.184-1.345,0.516-1.838c0.203-0.309,0.456-0.549,0.747-0.717      c-0.002-0.004-0.006-0.011-0.008-0.017c-0.595-1.333-1.493-3.348-0.695-4.576c0.272-0.421,0.874-0.927,2.105-0.832      c1.037-2.165,4.072-2.954,6.536-2.954c2.71,0,6.111,0.955,6.785,3.646c0.485,1.95-0.196,3.715-0.641,4.751      c0.646,0.416,1.034,1.24,1.034,2.303c0,1.165-0.462,2.36-1.273,2.842c-0.118,3.054-1.154,4.34-1.816,4.854v3.026      c2.372,0.977,4.992,2.244,7.113,3.438c4.132,2.327,4.132,3.081,4.132,3.529v4.818C33.124,48.637,32.765,49,32.321,49z" style="opacity: 2.94196; stroke-dasharray: 372.266px, 126.537px;"></path>
										</g>
									</g>
								</g>
							</g>
						</svg>