<svg xmlns="http://www.w3.org/2000/svg" xmlns:xlink="http://www.w3.org/1999/xlink" version="1.1" id="Layer_1" x="0px" y="0px" viewBox="25 0 50 50" xml:space="preserve">
							<g>
								<path class="svg-line" d="M51.732,1.23l-5.595,7.813l1.813,1.813l-16.107,8.04l-0.021,0.427   c-0.369,7.195-1.085,15.206-4.951,19.197l-0.502,0.518l1.085,1.086l0,0l1.037,1.037l0,0l0.982,0.979l0.518-0.52   c3.833-3.848,11.58-4.551,19.187-4.94l0.428-0.021l8.045-16.104l1.809,1.809l7.864-5.649" style="opacity: 2.94196; stroke-dasharray: 316.36px, 107.534px;"></path>
								<path class="svg-line" d="M75,48,27.701,48" style="opacity: 2.94196; stroke-dasharray: 139.152px, 47.299px;"></path>
							</g>
							<path class="svg-line" d="M39.747,28.522,27.852,40.416" style="opacity: 2.94196; stroke-dasharray: 49.4878px, 16.8214px;"></path>
							<path class="svg-line" d="M39.024,27.028a2.172,2.172 0 1,0 4.344,0a2.172,2.172 0 1,0 -4.344,0" style="opacity: 2.94196; stroke-dasharray: 40.1549px, 13.649px;"></path>
						</svg>